<svg t="1579067477920" class="icon" viewBox="0 0 1024 1024" version="1.1" xmlns="http://www.w3.org/2000/svg" p-id="10637" data-spm-anchor-id="a313x.7781069.0.i10" width="16" height="16"><path d="M742.760563 38.460094c20.832551-20.832551 55.126135-20.191549 77.080439 1.762754L938.266041 158.647887c21.794053 21.794053 22.755556 56.247887 1.762754 77.080439l-583.311424 583.471674c-10.256025 10.256025-30.287324 21.954304-44.87011 25.800313L123.713302 896.600939c-28.68482 7.852269-45.991862-9.294523-38.780595-37.979343l48.716119-192.140219c3.525509-14.422535 15.223787-34.453834 25.319562-44.709859L742.760563 38.460094zM198.870736 661.513615c-3.685759 3.685759-10.576526 15.864789-12.01878 20.992801L148.712363 832.661033l146.629108-40.062598c5.769014-1.602504 17.787793-8.493271 21.954304-12.820031l583.311424-583.311424-118.425039-118.425039-583.311424 583.471674zM740.837559 119.386541l118.425039 118.42504-39.421596 39.581846-118.42504-118.425039 39.421597-39.581847zM266.816901 593.246948l118.42504 118.425039-39.421597 39.421597-118.425039-118.425039 39.421596-39.421597zM940.509546 1022.397496H85.733959c-17.948044 0-32.69108-14.743036-32.69108-32.69108s14.743036-32.69108 32.69108-32.69108h854.775587c17.948044 0 32.69108 14.743036 32.69108 32.69108s-14.743036 32.69108-32.69108 32.69108z m0 0" fill="#515151" p-id="10638"></path></svg>