<svg width="1440" height="810" xmlns="http://www.w3.org/2000/svg" xmlns:xlink="http://www.w3.org/1999/xlink"><defs><linearGradient x1="20.773%" y1="36.498%" x2="70.212%" y2="63.938%" id="a"><stop stop-color="#3F6ED6" offset="0%"/><stop stop-color="#22418F" offset="100%"/></linearGradient><linearGradient x1="17.568%" y1="41.976%" x2="21.033%" y2="67.137%" id="c"><stop stop-color="#FFF" stop-opacity=".076" offset="0%"/><stop stop-color="#FFF" stop-opacity=".232" offset="100%"/></linearGradient><path id="b" d="M847.529 53.119L2266 919.282 2251.12 1232 0 1147 211.03 0z"/></defs><g fill="none" fill-rule="evenodd"><path fill="url(#a)" d="M-313 0h2066v1138H-313z"/><g transform="translate(-476 -67)"><mask id="d" fill="#fff"><use xlink:href="#b"/></mask><path d="M208.556-257.585L2173.155 941.212M208.556-179.35l1964.599 1198.797M208.556-101.118L2173.155 1097.68M208.556-22.884l1964.599 1198.797M208.556 55.349l1964.599 1198.798M208.556-335.818L2173.155 862.979M208.556 133.583L2173.155 1332.38M208.556 211.816l1964.599 1198.798M208.556 290.05l1964.599 1198.797M208.556 368.283l1964.599 1198.798M208.556 446.517l1964.599 1198.797M208.556 524.751l1964.599 1198.797M208.556 602.984l1964.599 1198.797M-468.6 275.69L1496 1474.487M-608.599 275.69L1356 1474.487M-756.599 275.69L1208 1474.487M-908.599 275.69L1056 1474.487M-1056.599 275.69L908 1474.487M79.106 1186.96L2079.585 131.245M83.2 1108.833L2083.68 53.12M87.295 1030.707L2087.773-25.008M91.39 952.581L2091.868-103.134M95.484 874.454L2095.962-181.26M75.012 1265.086L2075.49 209.37M99.578 796.328L2100.057-259.387M103.673 718.202L2104.15-337.513M107.767 640.075L2108.246-415.639M111.86 561.949L2112.34-493.766M115.956 483.823L2116.434-571.892M120.05 405.696L2120.53-650.018M124.145 327.57L2124.623-728.144M853.212 1769.135l1648.373-876.89M857.306 1691.008l1648.373-876.89M861.4 1612.883l1648.373-876.89M865.495 1534.756l1648.373-876.89M869.589 1456.63l1648.373-876.89M849.117 1847.262L2497.49 970.37M873.684 1378.503l1648.373-876.89M877.778 1300.377l1648.373-876.89M881.873 1222.25l1648.373-876.89M885.967 1144.125l1648.373-876.89M95.394 1479.325l2443.04-1290.212M142.394 1378.325L2542.53 110.987M65.394 1345.325L2546.624 32.861" stroke="url(#c)" mask="url(#d)"/></g><g opacity=".7" fill="#FFF"><path d="M836.709-39.93l161.384-86.005c9.16-4.882 12.71-6.114 16.865-6.877 4.156-.763 8.17-.66 12.281.318 4.111.976 7.591 2.39 16.488 7.738l357.351 214.834c6.627 3.984 8.77 12.586 4.785 19.212a14 14 0 01-5.413 5.142l-161.412 86.037c-9.162 4.883-12.71 6.115-16.867 6.878-4.156.764-8.172.66-12.283-.317-4.112-.977-7.593-2.39-16.49-7.74L836.078-15.578c-6.626-3.985-8.767-12.586-4.783-19.213a14 14 0 015.414-5.14zM-265.195-50.657l161.384-86.005c9.16-4.882 12.71-6.114 16.865-6.877 4.156-.763 8.17-.66 12.281.317 4.111.977 7.591 2.39 16.488 7.738l357.35 214.835c6.628 3.984 8.77 12.586 4.786 19.212a14 14 0 01-5.413 5.141l-161.412 86.038c-9.162 4.883-12.71 6.115-16.867 6.878-4.157.763-8.172.66-12.284-.317-4.11-.977-7.592-2.39-16.489-7.741l-357.32-214.866c-6.626-3.985-8.767-12.587-4.783-19.213a14 14 0 015.414-5.14z" opacity=".042"/><path d="M-115.08 190.304l161.385-86.005c9.16-4.882 12.71-6.114 16.865-6.877 4.156-.763 8.17-.66 12.281.317 4.111.977 7.592 2.39 16.488 7.739L449.29 320.312c6.627 3.984 8.77 12.586 4.785 19.212a14 14 0 01-5.413 5.141L287.25 430.703c-9.162 4.883-12.71 6.115-16.867 6.878-4.156.764-8.172.66-12.283-.317-4.112-.977-7.593-2.39-16.49-7.74l-357.32-214.867c-6.626-3.985-8.767-12.587-4.783-19.213a14 14 0 015.414-5.14z" opacity=".042"/><path d="M717.748 45.474l161.386-86.006c9.165-4.884 12.716-6.116 16.874-6.879 4.159-.762 8.176-.657 12.289.322 4.113.98 7.594 2.395 16.492 7.753l597.26 359.644c6.623 3.988 8.76 12.591 4.771 19.215a14 14 0 01-5.408 5.133l-161.415 86.039c-9.166 4.886-12.718 6.118-16.877 6.88-4.159.763-8.177.658-12.29-.321-4.113-.98-7.595-2.396-16.493-7.755L717.109 69.822c-6.623-3.99-8.759-12.592-4.77-19.216a14 14 0 015.409-5.132z" opacity=".052"/></g></g></svg>