<svg width="868" height="90" xmlns="http://www.w3.org/2000/svg"><defs><linearGradient x1="52.044%" y1="50%" x2="100%" y2="50%" id="a"><stop stop-color="#225BFF" stop-opacity="0" offset="0%"/><stop stop-color="#1C28FF" offset="100%"/></linearGradient><linearGradient x1="87.922%" y1="50%" x2="20.98%" y2="50%" id="b"><stop stop-color="#225BFF" stop-opacity="0" offset="0%"/><stop stop-color="#4463FF" offset="34.855%"/><stop stop-color="#1C28FF" stop-opacity="0" offset="100%"/></linearGradient></defs><g fill="none" fill-rule="evenodd"><path d="M688.375 44.427l-4.375 6H0v-6h688.375zM731.319 0l.805.593-36.206 49.11-.805-.593L731.319 0zm11 0l.805.593-36.206 49.11-.805-.593L742.319 0zM719 2.427l-26.979 37H0v-37h719z" fill="url(#a)" opacity=".4" transform="translate(-109 -3)"/><path d="M740.563 58l26.164 19.166L1029 77.165v1H766.314l-26.166-19.164L192 59v-1h548.563z" fill="url(#b)" fill-rule="nonzero" opacity=".583" transform="translate(-109 -3)"/></g></svg>