<svg width="16" height="16" xmlns="http://www.w3.org/2000/svg"><g fill="none" fill-rule="evenodd" opacity=".65"><path d="M0 0h16v16H0z"/><g fill="#000" fill-rule="nonzero"><path d="M8 6c.31 0 .563-.252.563-.563V.563a.562.562 0 10-1.126 0v4.875c0 .311.252.563.563.563z"/><path d="M8 16a7.95 7.95 0 01-5.656-2.344A7.973 7.973 0 010 8c0-1.27.29-2.486.86-3.612a8.068 8.068 0 012.3-2.758.562.562 0 01.68.893 6.945 6.945 0 00-1.976 2.37c-.49.971-.739 2.015-.739 3.107a6.865 6.865 0 002.014 4.863A6.84 6.84 0 008 14.875a6.865 6.865 0 004.863-2.014A6.84 6.84 0 0014.875 8a6.795 6.795 0 00-.74-3.103 6.93 6.93 0 00-1.976-2.37.56.56 0 11.682-.894 8.103 8.103 0 012.3 2.758A7.92 7.92 0 0116 8.003a7.95 7.95 0 01-2.344 5.653A7.986 7.986 0 018 16z"/></g></g></svg>