<svg width="180" height="33" xmlns="http://www.w3.org/2000/svg"><g fill="none" fill-rule="evenodd"><path fill="#000" d="M104.501 18.103h3.2v1.6h-3.2zM96.501 1.303h3.2v18.4h-3.2z"/><path fill="#000" d="M106.101 1.303h3.2v18.4h-3.2z"/><path fill="#000" d="M98.101 1.303h9.6v1.6h-9.6z"/><g fill="#000"><path d="M91.059.503h3.042l-1.758 6.4h-3.042z"/><path d="M90.901 2.103h4.8v1.6h-4.8zM89.301 10.103h6.4v1.6h-6.4zM90.901 18.103h4.8l-.39 1.6H90.9zM89.301 6.103h6.4v1.6h-6.4z"/><path d="M90.901 6.103h3.2v13.6h-3.2z"/></g><g fill="#000"><path d="M115.059.503h3.042l-2 7.2h-3.041z"/><path d="M114.901 2.103h4.8v1.6h-4.8zM113.301 10.103h6.4v1.6h-6.4zM114.901 18.103h4.8l-.606 1.6h-4.194zM113.943 6.103h5.758v1.6h-6.4z"/><path d="M114.901 6.103h3.2v13.6h-3.2z"/></g><path fill="#000" d="M74.249 6.103H77.3l-1.852 13.6h-3.2zM77.849 8.503h2.585l.4 4H78.25zM77.6 14.112h2.586l.648 3.991H78.25z"/><path fill="#000" d="M74.901 6.103h10.4v1.6h-10.4zM72.501 11.703h13.6l-.601 1.6H72.501z"/><path fill="#000" d="M82.101 7.703h3.2v11.2h-3.2z"/><path fill="#000" d="M73.301 18.103h12v1.6h-12zM76.1 2.103h10.001l-.601 1.6h-9.799zM66.821 12.503h4.08l-1.52 7.2h-4.08zM46.901 12.503h4l-2.4 6.4h-4zM61.301 12.503h-4l2.4 6.4h4zM66.101 1.303h3.973l1.627 4.8h-3.973zM66.101 6.903h3.973l1.627 4.8h-3.973zM44.501 2.103h18.4l-.52 1.6H44.5z"/><path fill="#000" d="M48.501.503h4l-4 10.41h-4z"/><path fill="#000" d="M46.901 9.303h15.2l-.52 1.6H46.9z"/><path fill="#000" d="M52.501 6.103h3.2v13.6h-3.2z"/><path fill="#000" d="M50.901 18.103h3.2v1.6h-3.2z"/><path fill="#25417A" d="M13.872 8.936v16l-7.68-5.583z"/><path fill="#BBC1C8" d="M14.512 9.576v15.36l7.04-5.585z"/><path d="M11.44 27.563L9.073 32.42c12.534.476 21.095-1.726 25.681-6.605 6.88-7.32 2.36-17.09-8.074-21.786C19.724.899 11.054-.383.671.184c11.44 2.536 19.065 6.199 22.875 10.988 5.716 7.183 2.17 13.695-1.994 15.118-2.776.95-6.147 1.374-10.112 1.273z" fill="#25417A"/><path fill="#000" d="M74.034.503H77.3l-1.533 4.8h-3.267zM121.301 1.303h2.4l-.8 6.4h-2.4z"/><path fill="#000" d="M122.101 2.103h9.6l-.329 1.6h-9.27zM120.501 9.303h11.2l-.328 1.6H120.5z"/><path fill="#000" d="M124.501.503h3.2v12.8h-3.2z"/><path fill="#000" d="M125.072 10.103l2.63 1.6-4.696 8h-3.305z"/><path fill="#000" d="M124.443 9.869h3.473l3.785 9.834h-3.472zM99.53 4.503h2.562l4.353 12h-2.583z"/><path fill="#000" d="M106.191 4.503h-2.677l-4.056 12h2.703zM99.701 4.503h1.31v1.191h-1.31z"/><path fill="#000" d="M104.45 4.503h1.651v1.191h-1.651zM104.501 14.903h1.6v1.6h-1.6zM98.901 14.903h1.6v1.6h-1.6zM136.583.503h3.118l-2.048 5.6h-3.118z"/><path fill="#000" d="M137.606 1.303h16.495l-.495 1.6h-15.505zM137.454 4.503h16.495l-.495 1.6h-15.505zM137.454 7.703h16.495l-.495 1.6h-15.505zM137.454 10.903h16.495l-.495 1.6h-15.505zM134.901 13.931h19.2l-.472 1.772H134.9z"/><path fill="#000" d="M143.701.503h3.2v10.4h-3.2zM142.901 11.703h3.2v8h-3.2zM135.701 2.903h3.2v10.14h-3.2zM138.007 15.103h4l-3.106 4.6h-4.534zM146.901 14.903h4l3.2 4.8h-4.526zM158.101 1.303h3.2v17.6h-3.2z"/><path fill="#000" d="M158.101 1.303h18.4v1.6h-18.4z"/><path fill="#000" d="M173.301 1.303h3.2v17.6h-3.2z"/><path fill="#000" d="M158.101 18.103h18.4v1.6h-18.4zM162.101 6.103h10.4v1.6h-10.4z"/><path fill="#000" d="M168.501 4.503h3.2v11.2h-3.2z"/><path fill="#000" d="M167.142 14.103h2.96v1.6h-2.604zM164.553 6.903h3.148l-2.451 8.8H162.1z"/><text font-family="Arial-BoldMT, Arial" font-size="10" font-weight="bold" letter-spacing=".762" fill="#000"><tspan x="43.239" y="30.703">DONGHAI STEEL GROUP</tspan></text></g></svg>